<?xml version="1.0" standalone="no"?>
<!DOCTYPE svg PUBLIC "-//W3C//DTD SVG 20010904//EN"
 "http://www.w3.org/TR/2001/REC-SVG-20010904/DTD/svg10.dtd">
<svg version="1.0" xmlns="http://www.w3.org/2000/svg"
 width="700.000000pt" height="700.000000pt" viewBox="0 0 700.000000 700.000000"
 preserveAspectRatio="xMidYMid meet">
<metadata>
Created by potrace 1.11, written by Peter Selinger 2001-2013
</metadata>
<g transform="translate(0.000000,700.000000) scale(0.100000,-0.100000)"
fill="#000000" stroke="none">
<path d="M2025 6540 c-6 -10 -14 -89 -19 -180 l-3 -55 -178 -3 -178 -2 7 -172
c4 -94 9 -175 12 -179 3 -5 2 -9 -3 -10 -29 -3 -98 -8 -157 -13 -68 -4 -89
-16 -79 -43 7 -18 91 -32 206 -33 23 0 37 -5 37 -12 0 -10 -73 -13 -332 -13
-438 1 -423 8 -414 -205 5 -122 13 -181 40 -315 12 -58 57 -216 76 -260 71
-174 129 -285 211 -405 143 -208 335 -381 535 -483 142 -72 206 -95 379 -133
11 -3 56 -7 100 -11 l80 -6 59 -78 c68 -89 234 -263 316 -331 140 -116 313
-214 455 -259 39 -12 74 -26 79 -30 10 -9 15 -1094 6 -1109 -3 -4 -79 -10
-170 -13 -111 -3 -181 -10 -215 -21 -174 -56 -309 -186 -373 -359 l-27 -72 -3
-518 -3 -517 1023 0 1024 0 -1 498 c-1 518 -3 549 -46 650 -45 104 -149 218
-248 271 -42 22 -187 72 -208 71 -2 0 -58 0 -126 0 l-122 0 0 560 0 561 55 16
c255 73 557 293 770 560 101 127 96 123 137 124 21 0 45 2 53 4 8 1 42 8 75
14 79 16 207 56 273 87 29 13 55 24 57 24 7 0 175 100 194 115 212 171 296
265 438 490 98 155 212 472 238 660 3 23 8 52 11 65 2 14 7 84 10 155 6 123 5
132 -15 157 -12 15 -39 32 -59 37 -20 5 -175 8 -345 7 l-307 -1 5 40 c10 84
15 155 20 293 l6 142 -1641 0 c-902 0 -1640 1 -1641 3 0 1 -2 36 -5 77 -3 41
-7 89 -8 105 -2 17 -4 38 -5 48 -1 18 -45 25 -56 7z m-308 -985 c7 -33 15 -75
18 -94 8 -51 61 -260 96 -378 74 -256 211 -582 333 -793 14 -25 26 -48 26 -52
0 -7 -131 26 -165 42 -11 5 -40 17 -65 27 -157 62 -348 209 -470 362 -157 196
-281 468 -329 721 -16 85 -32 211 -27 219 3 4 132 7 288 6 l283 0 12 -60z
m4153 55 c-2 -44 -33 -236 -50 -300 -39 -157 -56 -203 -134 -360 -164 -334
-423 -571 -735 -676 -102 -34 -124 -37 -104 -12 20 25 116 214 165 323 137
305 234 622 303 991 2 10 4 24 4 29 1 10 551 15 551 5z"/>
</g>
</svg>
